<?xml version="1.0" ?>
<svg enable-background="new 0 0 64 64" height="64px" version="1.1" viewBox="0 0 64 64" width="64px" xml:space="preserve" xmlns="http://www.w3.org/2000/svg" xmlns:xlink="http://www.w3.org/1999/xlink"><g id="Layer_1"><g><circle cx="31.833" cy="32" fill="#4F5D73" r="32"/></g><g opacity="0.2"><g><circle cx="44" cy="39" fill="#231F20" r="2"/></g><g><circle cx="44" cy="51" fill="#231F20" r="2"/></g><g><path d="M26,22h-4v-4c0-1.105-0.895-2-2-2s-2,0.895-2,2v4h-4c-1.105,0-2,0.895-2,2c0,1.104,0.895,2,2,2h4v4     c0,1.104,0.895,2,2,2s2-0.896,2-2v-4h4c1.105,0,2-0.896,2-2C28,22.895,27.105,22,26,22z" fill="#231F20"/></g><g><path d="M38,26h12c1.105,0,2-0.896,2-2c0-1.105-0.895-2-2-2H38c-1.105,0-2,0.895-2,2C36,25.104,36.895,26,38,26z" fill="#231F20"/></g><g><path d="M50,43H38c-1.105,0-2,0.895-2,2c0,1.104,0.895,2,2,2h12c1.105,0,2-0.896,2-2C52,43.895,51.105,43,50,43z" fill="#231F20"/></g><g><path d="M26.828,39.172c-0.781-0.781-2.047-0.781-2.828,0l-4,4l-4-4c-0.781-0.781-2.047-0.781-2.828,0     c-0.781,0.781-0.781,2.047,0,2.828l4,4l-4,4c-0.781,0.781-0.781,2.047,0,2.828s2.047,0.781,2.828,0l4-4l4,4     c0.781,0.781,2.047,0.781,2.828,0s0.781-2.047,0-2.828l-4-4l4-4C27.609,41.219,27.609,39.953,26.828,39.172z" fill="#231F20"/></g></g><g><circle cx="44" cy="37" fill="#E0E0D1" r="2"/></g><g><circle cx="44" cy="49" fill="#E0E0D1" r="2"/></g><g><path d="M28,22c0,1.105-0.895,2-2,2H14c-1.105,0-2-0.895-2-2l0,0c0-1.105,0.895-2,2-2h12    C27.105,20,28,20.895,28,22L28,22z" fill="#F5CF87"/></g><g><path d="M52,22c0,1.105-0.895,2-2,2H38c-1.105,0-2-0.895-2-2l0,0c0-1.105,0.895-2,2-2h12    C51.105,20,52,20.895,52,22L52,22z" fill="#E0995E"/></g><g><path d="M20,30c-1.105,0-2-0.895-2-2V16c0-1.105,0.895-2,2-2l0,0c1.105,0,2,0.895,2,2v12    C22,29.105,21.105,30,20,30L20,30z" fill="#F5CF87"/></g><g><path d="M52,43c0,1.105-0.895,2-2,2H38c-1.105,0-2-0.895-2-2l0,0c0-1.105,0.895-2,2-2h12    C51.105,41,52,41.895,52,43L52,43z" fill="#E0E0D1"/></g><g><path d="M26.828,50.828c-0.781,0.781-2.047,0.781-2.828,0L13.172,40c-0.781-0.781-0.781-2.047,0-2.828l0,0    c0.781-0.781,2.047-0.781,2.828,0L26.828,48C27.609,48.781,27.609,50.047,26.828,50.828L26.828,50.828z" fill="#76C2AF"/></g><g><path d="M13.172,50.828c-0.781-0.781-0.781-2.047,0-2.828L24,37.172c0.781-0.781,2.047-0.781,2.828,0l0,0    c0.781,0.781,0.781,2.047,0,2.828L16,50.828C15.219,51.609,13.953,51.609,13.172,50.828L13.172,50.828z" fill="#76C2AF"/></g></g><g id="Layer_2"/></svg>